<?xml version="1.0" encoding="UTF-8"?>
<svg width="45px" height="45px" viewBox="0 0 45 45" version="1.1" xmlns="http://www.w3.org/2000/svg" xmlns:xlink="http://www.w3.org/1999/xlink">
    <!-- Generator: Sketch 61 (89581) - https://sketch.com -->
    <title>Group 4</title>
    <desc>Created with Sketch.</desc>
    <defs>
        <path d="M20.9088333,8.70166667 C21.6255,8.12333333 22.6738333,8.23833333 23.2521667,8.955 L23.2521667,8.955 L31.2988333,18.955 C31.7971667,19.5733333 31.7888333,20.4566667 31.2805,21.0666667 L31.2805,21.0666667 L22.9471667,31.0666667 C22.6171667,31.4616667 22.1438333,31.6666667 21.6655,31.6666667 C21.2905,31.6666667 20.9121667,31.54 20.6005,31.28 C19.8921667,30.6916667 19.7971667,29.64 20.3871667,28.9333333 L20.3871667,28.9333333 L27.8471667,19.9816667 L20.6538333,11.045 C20.0771667,10.3283333 20.1905,9.27833333 20.9088333,8.70166667 Z M9.242,8.70166667 C9.95866667,8.125 11.007,8.23833333 11.5853333,8.955 L11.5853333,8.955 L19.632,18.955 C20.1286667,19.5733333 20.122,20.4566667 19.6136667,21.0666667 L19.6136667,21.0666667 L11.2803333,31.0666667 C10.9503333,31.4616667 10.477,31.6666667 9.99866667,31.6666667 C9.62366667,31.6666667 9.24533333,31.54 8.93366667,31.28 C8.22533333,30.6916667 8.13033333,29.64 8.72033333,28.9333333 L8.72033333,28.9333333 L16.1786667,19.9816667 L8.987,11.045 C8.41033333,10.3283333 8.52533333,9.27833333 9.242,8.70166667 Z" id="path-1"></path>
    </defs>
    <g id="Page-1" stroke="none" stroke-width="1" fill="none" fill-rule="evenodd">
        <g id="4th-Screen:-Workout-Start" transform="translate(-97.000000, -411.000000)">
            <g id="Group-4" transform="translate(97.000000, 411.000000)">
                <g id="Group-3" fill="#647D91">
                    <circle id="Oval" cx="22.5" cy="22.5" r="22.5"></circle>
                </g>
                <g id="arrowhead-right" transform="translate(3.000000, 3.000000)">
                    <mask id="mask-2" fill="white">
                        <use xlink:href="#path-1"></use>
                    </mask>
                    <use id="🎨-Icon-Сolor" fill="#FFFFFF" fill-rule="evenodd" xlink:href="#path-1"></use>
                </g>
            </g>
        </g>
    </g>
</svg>