<?xml version="1.0" encoding="UTF-8"?>
<svg width="45px" height="45px" viewBox="0 0 45 45" version="1.1" xmlns="http://www.w3.org/2000/svg" xmlns:xlink="http://www.w3.org/1999/xlink">
    <!-- Generator: Sketch 61 (89581) - https://sketch.com -->
    <title>Group 3</title>
    <desc>Created with Sketch.</desc>
    <defs>
        <path d="M28.7191667,8.93366667 C29.3091667,8.22533333 30.3591667,8.132 31.0675,8.72033333 C31.7741667,9.30866667 31.8691667,10.3603333 31.2808333,11.067 L31.2808333,11.067 L23.8208333,20.0186667 L31.0125,28.9553333 C31.5891667,29.672 31.4758333,30.7203333 30.7591667,31.2986667 C30.4508333,31.547 30.0808333,31.667 29.7141667,31.667 C29.2275,31.667 28.7441667,31.4536667 28.4141667,31.0453333 L28.4141667,31.0453333 L20.3675,21.0453333 C19.8708333,20.427 19.8775,19.542 20.3858333,18.9336667 L20.3858333,18.9336667 Z M17.0535,8.93316667 C17.6418333,8.2265 18.6918333,8.1315 19.4001667,8.71983333 C20.1068333,9.30983333 20.2018333,10.3598333 19.6135,11.0665 L19.6135,11.0665 L12.1535,20.0181667 L19.3451667,28.9548333 C19.9218333,29.6715 19.8085,30.7215 19.0918333,31.2981667 C18.7835,31.5465 18.4151667,31.6665 18.0468333,31.6665 C17.5601667,31.6665 17.0768333,31.4548333 16.7485,31.0448333 L16.7485,31.0448333 L8.70183333,21.0448333 C8.2035,20.4265 8.21183333,19.5431667 8.72016667,18.9331667 L8.72016667,18.9331667 Z" id="path-1"></path>
    </defs>
    <g id="Page-1" stroke="none" stroke-width="1" fill="none" fill-rule="evenodd">
        <g id="4th-Screen:-Workout-Start" transform="translate(-25.000000, -470.000000)">
            <g id="Group-3" transform="translate(25.000000, 470.000000)">
                <circle id="Oval" fill="#647D91" cx="22.5" cy="22.5" r="22.5"></circle>
                <g id="arrowhead-left" transform="translate(2.000000, 2.000000)">
                    <mask id="mask-2" fill="white">
                        <use xlink:href="#path-1"></use>
                    </mask>
                    <use id="🎨-Icon-Сolor" fill="#FFFFFF" fill-rule="evenodd" xlink:href="#path-1"></use>
                </g>
            </g>
        </g>
    </g>
</svg>