<?xml version="1.0" encoding="UTF-8"?>
<svg width="21px" height="20px" viewBox="0 0 21 20" version="1.1" xmlns="http://www.w3.org/2000/svg" xmlns:xlink="http://www.w3.org/1999/xlink">
    <!-- Generator: Sketch 61 (89581) - https://sketch.com -->
    <title>Icon/Arrow Circle Left/Fill</title>
    <desc>Created with Sketch.</desc>
    <g id="Page-1" stroke="none" stroke-width="1" fill="none" fill-rule="evenodd">
        <g id="4th-Screen:-Workout-Start" transform="translate(-23.000000, -87.000000)">
            <g id="Icon/Arrow-Circle-Left/Fill" transform="translate(21.500000, 85.000000)">
                <polygon id="24pt-Bounding-Box" opacity="0" fill-rule="nonzero" transform="translate(12.000000, 12.000000) rotate(90.000000) translate(-12.000000, -12.000000) " points="0 0 24 0 24 24 0 24"></polygon>
                <path d="M21.5,12 C21.5,6.75329237 17.2467076,2.5 12,2.5 C6.75329237,2.5 2.5,6.75329237 2.5,12 C2.5,17.2467076 6.75329237,21.5 12,21.5 C17.2467073,21.5 21.5,17.2467075 21.5,12 Z M6.75640835,12.8121975 C6.69910431,12.7379193 6.65305861,12.6581087 6.62267703,12.5821279 C6.45879735,12.2113432 6.45879735,11.7886569 6.61381559,11.4392458 C6.68520737,11.2551188 6.79225459,11.0869015 6.9364466,10.9364466 L9.9364466,7.93644663 C10.5238309,7.34906234 11.4761721,7.34906234 12.0635534,7.93644662 C12.6509377,8.52383092 12.6509377,9.4761721 12.0621857,10.0649158 L11.6237288,10.5 L16,10.5 C16.8284273,10.5 17.5,11.1715726 17.5,12 C17.5,12.8284274 16.8284273,13.5 16,13.5 L11.5082021,13.5 L11.9521877,13.9652972 C12.5236376,14.5657337 12.5001393,15.515732 11.8997027,16.0871878 C11.2992662,16.6586376 10.3492679,16.6351394 9.77781389,16.0347046 L9.77810321,16.0350083 L6.9220953,13.0391479 C6.8562566,12.9716579 6.80049855,12.8952141 6.75640835,12.8121975 Z" id="Fill" stroke="#979797" stroke-width="1" fill="#647D91" fill-rule="evenodd"></path>
            </g>
        </g>
    </g>
</svg>