
<svg width="20px" height="16px" viewBox="0 0 20 17" version="1.1" xmlns="http://www.w3.org/2000/svg" xmlns:xlink="http://www.w3.org/1999/xlink">
    <defs>
        <path d="M7.2197,6 C6.3557,6 5.5457,6.334 4.9397,6.941 C3.6817,8.201 3.6817,10.252 4.9407,11.514 L11.9997,18.585 L19.0597,11.514 C20.3187,10.252 20.3187,8.201 19.0597,6.941 C17.8477,5.726 15.7117,5.728 14.4997,6.941 L12.7077,8.736 C12.3317,9.113 11.6677,9.113 11.2917,8.736 L9.4997,6.94 C8.8937,6.334 8.0847,6 7.2197,6 M11.9997,21 L11.9997,21 C11.7347,21 11.4797,20.895 11.2927,20.706 L3.5247,12.926 C1.4887,10.886 1.4887,7.567 3.5247,5.527 C4.5087,4.543 5.8207,4 7.2197,4 C8.6187,4 9.9317,4.543 10.9147,5.527 L11.9997,6.614 L13.0847,5.528 C14.0687,4.543 15.3807,4 16.7807,4 C18.1787,4 19.4917,4.543 20.4747,5.527 C22.5117,7.567 22.5117,10.886 20.4757,12.926 L12.7077,20.707 C12.5197,20.895 12.2657,21 11.9997,21" id="path-1"></path>
    </defs>
    <g id="Page-1" stroke="none" stroke-width="1" fill="none" fill-rule="evenodd">
        <g id="heart" transform="translate(-2.000000, -4.000000)">
            <mask id="mask-2" fill="white">
                <use xlink:href="#path-1"></use>
            </mask>
            <use id="🎨-Icon-Сolor" fill="#FFFFFF" fill-rule="evenodd" xlink:href="#path-1"></use>
        </g>
    </g>
</svg>