<?xml version="1.0" encoding="UTF-8"?>
<svg width="201px" height="43px" viewBox="0 0 201 43" version="1.1" xmlns="http://www.w3.org/2000/svg" xmlns:xlink="http://www.w3.org/1999/xlink">
    <!-- Generator: Sketch 61 (89581) - https://sketch.com -->
    <title>App Title Copy</title>
    <desc>Created with Sketch.</desc>
    <g id="Page-1" stroke="none" stroke-width="1" fill="none" fill-rule="evenodd">
        <g id="App-Title-Copy" transform="translate(3.000000, 3.000000)" stroke="#647D91">
            <line x1="15" y1="3.90588235" x2="15" y2="34.4941176" id="Line-3" stroke-width="6" stroke-linecap="square"></line>
            <line x1="28.48" y1="1.8" x2="0.32" y2="1.8" id="Line" stroke-width="4.8" stroke-linecap="square"></line>
            <line x1="60.3428571" y1="23.1157895" x2="68.4" y2="36" id="Line-4" stroke-width="4.8" stroke-linecap="square"></line>
            <line x1="95.675" y1="3.90588235" x2="80.725" y2="34.4941176" id="Line-5" stroke-width="4.8" stroke-linecap="square"></line>
            <line x1="97.536" y1="3.90588235" x2="113.664" y2="34.4941176" id="Line-6" stroke-width="4.8" stroke-linecap="square"></line>
            <line x1="122.4" y1="1.2" x2="136.8" y2="24" id="Line-7" stroke-width="4.8" stroke-linecap="square"></line>
            <line x1="150.872727" y1="1.50810811" x2="137.127273" y2="23.6918919" id="Line-8" stroke-width="4.8" stroke-linecap="square"></line>
            <line x1="137.4" y1="22.8" x2="137.1" y2="34.4842105" id="Line-9" stroke-width="4.8" stroke-linecap="square"></line>
            <line x1="165.6" y1="34.8" x2="165" y2="0" id="Line-10" stroke-width="4.8" stroke-linecap="square"></line>
            <line x1="167.128571" y1="1.50545455" x2="194.4" y2="33.6" id="Line-11" stroke-width="4.8" stroke-linecap="square"></line>
            <line x1="195" y1="33.6" x2="194.7" y2="0.305454545" id="Line-12" stroke-width="4.8" stroke-linecap="square"></line>
            <path d="M43.2,24 C58.4430591,24 70.8,18.8960461 70.8,12.6 C70.8,6.30395385 58.4430591,1.2 43.2,1.2" id="Path" stroke-width="4.8"></path>
            <line x1="43.8" y1="24.3157895" x2="43.8" y2="35.6842105" id="Line-2" stroke-width="4.8" stroke-linecap="square"></line>
        </g>
    </g>
</svg>