
<svg width="14px" height="14px" viewBox="0 0 14 14" version="1.1" xmlns="http://www.w3.org/2000/svg" xmlns:xlink="http://www.w3.org/1999/xlink">
    <defs>
        <path d="M3.75,8.25 C3.75,5.76825 5.76825,3.75 8.25,3.75 C10.73175,3.75 12.75,5.76825 12.75,8.25 C12.75,10.73175 10.73175,12.75 8.25,12.75 C5.76825,12.75 3.75,10.73175 3.75,8.25 M15.53025,14.46975 L12.984,11.92275 C13.77375,10.90725 14.25,9.6345 14.25,8.25 C14.25,4.94175 11.55825,2.25 8.25,2.25 C4.94175,2.25 2.25,4.94175 2.25,8.25 C2.25,11.55825 4.94175,14.25 8.25,14.25 C9.6345,14.25 10.90725,13.77375 11.92275,12.984 L14.46975,15.53025 C14.616,15.6765 14.808,15.75 15,15.75 C15.192,15.75 15.384,15.6765 15.53025,15.53025 C15.8235,15.237 15.8235,14.763 15.53025,14.46975" id="path-1"></path>
    </defs>
    <g id="Page-1" stroke="none" stroke-width="1" fill="none" fill-rule="evenodd">
        <g id="Third-Screen:-PersonalWorkoutList" transform="translate(-345.000000, -57.000000)">
            <g id="search" transform="translate(343.000000, 55.000000)">
                <mask id="mask-2" fill="white">
                    <use xlink:href="#path-1"></use>
                </mask>
                <use id="🎨-Icon-Сolor" fill="#0D1C2E" fill-rule="nonzero" xlink:href="#path-1"></use>
            </g>
        </g>
    </g>
</svg>