
<svg width="29px" height="24px" viewBox="0 0 29 24" version="1.1" xmlns="http://www.w3.org/2000/svg" xmlns:xlink="http://www.w3.org/1999/xlink">
    <defs>
        <path d="M9.9270875,8.25 C8.7390875,8.25 7.6253375,8.70925 6.7920875,9.543875 C5.0623375,11.276375 5.0623375,14.0965 6.7934625,15.83175 L16.4995875,25.554375 L26.2070875,15.83175 C27.9382125,14.0965 27.9382125,11.276375 26.2070875,9.543875 C24.5405875,7.87325 21.6035875,7.876 19.9370875,9.543875 L17.4730875,12.012 C16.9560875,12.530375 16.0430875,12.530375 15.5260875,12.012 L13.0620875,9.5425 C12.2288375,8.70925 11.1164625,8.25 9.9270875,8.25 M16.4995875,28.875 L16.4995875,28.875 C16.1352125,28.875 15.7845875,28.730625 15.5274625,28.47075 L4.8464625,17.77325 C2.0469625,14.96825 2.0469625,10.404625 4.8464625,7.599625 C6.1994625,6.246625 8.0034625,5.5 9.9270875,5.5 C11.8507125,5.5 13.6560875,6.246625 15.0077125,7.599625 L16.4995875,9.09425 L17.9914625,7.601 C19.3444625,6.246625 21.1484625,5.5 23.0734625,5.5 C24.9957125,5.5 26.8010875,6.246625 28.1527125,7.599625 C30.9535875,10.404625 30.9535875,14.96825 28.1540875,17.77325 L17.4730875,28.472125 C17.2145875,28.730625 16.8653375,28.875 16.4995875,28.875" id="path-1"></path>
    </defs>
    <g id="Page-1" stroke="none" stroke-width="1" fill="none" fill-rule="evenodd">
        <g id="Home-List-of-Exercises" transform="translate(-223.000000, -632.000000)">
            <g id="Nav" transform="translate(-1.000000, 619.000000)">
                <g id="heart" transform="translate(222.000000, 8.000000)">
                    <mask id="mask-2" fill="white">
                        <use xlink:href="#path-1"></use>
                    </mask>
                    <use id="🎨-Icon-Сolor" fill="#FFFFFF" fill-rule="evenodd" xlink:href="#path-1"></use>
                </g>
            </g>
        </g>
    </g>
</svg>