
<svg width="29px" height="24px" viewBox="0 0 25 29" version="1.1" xmlns="http://www.w3.org/2000/svg" xmlns:xlink="http://www.w3.org/1999/xlink">
    <g id="Page-1" stroke="none" stroke-width="1" fill="none" fill-rule="evenodd">
        <g id="Home-List-of-Exercises" transform="translate(-37.000000, -630.000000)" fill="#FFFFFF">
            <g id="Nav" transform="translate(-1.000000, 619.000000)">
                <g id="home" transform="translate(34.000000, 9.000000)">
                    <path d="M16.497525,6.077225 L26.125275,15.966225 L26.111525,27.483225 L22.000275,27.483225 L22.000275,17.858225 C22.000275,17.09785 21.384275,16.483225 20.625275,16.483225 L12.375275,16.483225 C11.6149,16.483225 11.000275,17.09785 11.000275,17.858225 L11.000275,27.483225 L6.875275,27.483225 L6.883525,15.90985 L16.497525,6.077225 Z M19.250275,19.233225 L19.250275,27.483225 L13.750275,27.483225 L13.750275,19.233225 L19.250275,19.233225 Z M28.083275,13.9876 L17.4834,3.1471 C16.965025,2.617725 16.035525,2.617725 15.51715,3.1471 L4.9159,13.988975 C4.414025,14.5046 4.125275,15.2251 4.125275,15.966225 L4.125275,27.483225 C4.125275,28.99985 5.2899,30.233225 6.721275,30.233225 L12.375275,30.233225 L20.625275,30.233225 L26.2779,30.233225 C27.709275,30.233225 28.875275,28.99985 28.875275,27.483225 L28.875275,15.966225 C28.875275,15.2251 28.586525,14.5046 28.083275,13.9876 L28.083275,13.9876 Z" id="🎨-Icon-Сolor"></path>
                </g>
            </g>
        </g>
    </g>
</svg>