
<svg width="23px" height="23px" viewBox="0 0 23 23" version="1.1" xmlns="http://www.w3.org/2000/svg" xmlns:xlink="http://www.w3.org/1999/xlink">
    <defs>
        <path d="M26.125,15.125 L17.875,15.125 L17.875,6.875 C17.875,6.114625 17.259,5.5 16.5,5.5 C15.741,5.5 15.125,6.114625 15.125,6.875 L15.125,15.125 L6.875,15.125 C6.116,15.125 5.5,15.739625 5.5,16.5 C5.5,17.260375 6.116,17.875 6.875,17.875 L15.125,17.875 L15.125,26.125 C15.125,26.885375 15.741,27.5 16.5,27.5 C17.259,27.5 17.875,26.885375 17.875,26.125 L17.875,17.875 L26.125,17.875 C26.884,17.875 27.5,17.260375 27.5,16.5 C27.5,15.739625 26.884,15.125 26.125,15.125" id="path-1"></path>
    </defs>
    <g id="Page-1" stroke="none" stroke-width="1" fill="none" fill-rule="evenodd">
        <g id="Home-List-of-Exercises" transform="translate(-120.000000, -632.000000)">
            <g id="Nav" transform="translate(-1.000000, 619.000000)">
                <g id="plus" transform="translate(116.000000, 8.000000)">
                    <mask id="mask-2" fill="white">
                        <use xlink:href="#path-1"></use>
                    </mask>
                    <use id="🎨-Icon-Сolor" fill="#FFFFFF" fill-rule="evenodd" xlink:href="#path-1"></use>
                </g>
            </g>
        </g>
    </g>
</svg>