
<svg width="29px" height="24px" viewBox="0 0 25 30" version="1.1" xmlns="http://www.w3.org/2000/svg" xmlns:xlink="http://www.w3.org/1999/xlink">
    <defs>
        <path d="M20.625,16.5 L17.875,16.5 L17.875,13.75 C17.875,12.989625 17.259,12.375 16.5,12.375 C15.741,12.375 15.125,12.989625 15.125,13.75 L15.125,17.875 C15.125,18.635375 15.741,19.25 16.5,19.25 L20.625,19.25 C21.384,19.25 22,18.635375 22,17.875 C22,17.114625 21.384,16.5 20.625,16.5 M16.5,27.15625 C11.38225,27.15625 7.21875,22.99275 7.21875,17.875 C7.21875,12.75725 11.38225,8.59375 16.5,8.59375 C21.61775,8.59375 25.78125,12.75725 25.78125,17.875 C25.78125,22.99275 21.61775,27.15625 16.5,27.15625 M17.8585,5.57975 C17.86125,5.550875 17.875,5.528875 17.875,5.5 L17.875,4.125 L19.25,4.125 C20.009,4.125 20.625,3.510375 20.625,2.75 C20.625,1.989625 20.009,1.375 19.25,1.375 L13.75,1.375 C12.991,1.375 12.375,1.989625 12.375,2.75 C12.375,3.510375 12.991,4.125 13.75,4.125 L15.125,4.125 L15.125,5.5 C15.125,5.528875 15.13875,5.550875 15.1415,5.57975 C8.955375,6.259 4.125,11.5115 4.125,17.875 C4.125,24.699125 9.67725,30.25 16.5,30.25 C23.32275,30.25 28.875,24.699125 28.875,17.875 C28.875,11.5115 24.044625,6.259 17.8585,5.57975" id="path-1"></path>
    </defs>
    <g id="Page-1" stroke="none" stroke-width="1" fill="none" fill-rule="evenodd">
        <g id="Home-List-of-Exercises" transform="translate(-310.000000, -628.000000)">
            <g id="Nav" transform="translate(-1.000000, 619.000000)">
                <g id="timer" transform="translate(307.000000, 8.000000)">
                    <mask id="mask-2" fill="white">
                        <use xlink:href="#path-1"></use>
                    </mask>
                    <use id="🎨-Icon-Сolor" fill="#FFFFFF" fill-rule="evenodd" xlink:href="#path-1"></use>
                </g>
            </g>
        </g>
    </g>
</svg>